<?xml version="1.0" encoding="UTF-8" standalone="no"?>
<svg
   xmlns:dc="http://purl.org/dc/elements/1.1/"
   xmlns:cc="http://creativecommons.org/ns#"
   xmlns:rdf="http://www.w3.org/1999/02/22-rdf-syntax-ns#"
   xmlns:svg="http://www.w3.org/2000/svg"
   xmlns="http://www.w3.org/2000/svg"
   viewBox="0 0 682.66669 682.66669"
   height="682.66669"
   width="682.66669"
   xml:space="preserve"
   id="svg2"
   version="1.1"><metadata
     id="metadata8"><rdf:RDF><cc:Work
         rdf:about=""><dc:format>image/svg+xml</dc:format><dc:type
           rdf:resource="http://purl.org/dc/dcmitype/StillImage" /></cc:Work></rdf:RDF></metadata><defs
     id="defs6"><clipPath
       id="clipPath22"
       clipPathUnits="userSpaceOnUse"><path
         id="path20"
         d="M 0,512 H 512 V 0 H 0 Z" /></clipPath></defs><g
     transform="matrix(1.3333333,0,0,-1.3333333,0,682.66667)"
     id="g10"><g
       transform="translate(78.9622,252.3599)"
       id="g12"><path
         id="path14"
         style="fill:#29b2fe;fill-opacity:1;fill-rule:nonzero;stroke:none"
         d="m 0,0 19.524,-20.972 21.537,21.111 6.684,39.32 -26.246,1.339 M -2.407,2.445 18.262,41.003 -41.761,44.247 m 24.377,12.147 5.076,-10.404 27.977,-1.743 M 37.563,56.394 23.429,43.649 47.202,42.762 M -9.226,-49.114 17.219,-23.26 1.303,-6.179 m 40.264,62.573 9.662,-13.551 48.887,13.551" /></g><g
       id="g16"><g
         clip-path="url(#clipPath22)"
         id="g18"><g
           transform="translate(450.1259,269.308)"
           id="g24"><path
             id="path26"
             style="fill:#161f2b;fill-opacity:1;fill-rule:nonzero;stroke:none"
             d="m 0,0 -6.272,-39.454 c -0.123,-0.777 -0.81,-1.55 -1.656,-1.55 h -10.566 c -0.846,0 -1.427,0.773 -1.304,1.549 l 4.163,26.101 15.636,13.351 z m -32.421,-16.627 c 0.671,4.227 -0.619,6.764 -4.143,6.764 -3.38,0 -5.613,-2.538 -6.282,-6.764 l -0.034,-0.212 h 10.425 z m 10.269,-7.68 h -21.909 l -0.022,-0.14 c -0.593,-3.734 0.59,-6.058 5.732,-6.058 3.734,0 10.692,0.35 13.474,0.565 1.137,0.073 1.527,-0.139 1.361,-1.196 l -1.007,-6.343 c -0.175,-1.127 -0.537,-1.619 -1.721,-1.973 -4.741,-1.482 -9.715,-2.185 -15.631,-2.185 -9.51,0 -17.524,5.003 -15.393,18.458 l 0.737,4.65 c 1.963,12.398 10.219,19.162 21.773,19.162 12.325,0 16.795,-7.818 14.998,-19.161 l -0.671,-4.23 c -0.146,-0.913 -0.881,-1.546 -1.726,-1.546 z m -41.349,-16.204 c -2.484,-0.563 -5.674,-1.126 -9.828,-1.126 -10.78,0 -15.743,6.904 -13.913,18.458 l 0.837,5.283 c 1.821,11.484 8.994,18.529 19.772,18.529 4.158,0 7.578,-0.632 9.473,-1.123 0.881,-0.213 1.319,-0.566 1.173,-1.482 l -1.261,-7.961 c -0.134,-0.846 -0.656,-1.479 -1.692,-1.338 -2.363,0.209 -4.571,0.492 -8.022,0.492 -3.028,0 -5.091,-1.904 -5.917,-7.119 l -0.837,-5.28 c -0.825,-5.215 0.646,-7.045 3.676,-7.045 3.45,0 5.727,0.14 8.168,0.423 1.08,0.138 1.412,-0.423 1.269,-1.339 l -1.251,-7.892 C -62,-39.949 -62.55,-40.3 -63.502,-40.513 Z m -31.251,-0.493 h -10.567 c -0.846,0 -1.426,0.773 -1.304,1.549 l 3.782,23.884 c 0.591,3.734 -0.415,4.93 -3.588,4.93 -1.619,0 -3.763,-0.631 -5.517,-1.479 l -4.327,-27.335 c -0.123,-0.776 -0.81,-1.549 -1.656,-1.549 h -10.566 c -0.846,0 -1.427,0.773 -1.304,1.549 l 6.022,38.045 c 0.124,0.776 0.858,1.41 1.634,1.41 h 9.792 c 0.776,0 1.308,-0.633 1.186,-1.41 l -0.257,-1.62 c 4.179,2.819 8.247,3.595 12.194,3.595 11.057,0 11.241,-7.75 9.913,-16.133 l -3.782,-23.886 c -0.124,-0.777 -0.811,-1.552 -1.655,-1.552 z m -49.688,16.979 h -3.451 c -3.523,0 -5.11,-1.128 -5.578,-4.085 l -0.112,-0.706 c -0.38,-2.396 1.129,-3.101 3.101,-3.101 1.692,0 3.671,0.496 4.959,1.056 l 1.08,6.836 z m 9.004,-16.979 h -9.792 c -0.773,0 -1.308,0.633 -1.185,1.409 l 0.236,1.479 c -2.99,-1.972 -6.757,-3.521 -10.631,-3.521 -5.565,0 -11.555,3.099 -10.05,12.61 l 0.134,0.846 c 1.339,8.454 8.23,11.484 19.994,11.484 h 3.03 l 0.323,2.042 c 0.547,3.451 -0.481,4.084 -4.002,4.084 -3.946,0 -10.342,-0.35 -12.337,-0.493 -1.208,-0.07 -1.459,0.565 -1.328,1.411 l 1.084,6.832 c 0.168,1.056 0.788,1.408 1.677,1.692 2.436,0.703 8.65,1.692 13.16,1.692 10.215,0 17.102,-3.666 15.273,-15.22 l -3.951,-24.94 c -0.123,-0.776 -0.86,-1.409 -1.633,-1.409 z m -37.439,0 h -10.636 c -0.776,0 -1.427,0.773 -1.304,1.549 l 8.156,51.502 c 0.123,0.773 0.998,1.408 1.773,1.408 h 10.638 c 0.776,0 1.308,-0.632 1.186,-1.407 l -8.157,-51.502 c -0.123,-0.773 -0.88,-1.549 -1.654,-1.549 z m -24.566,24.377 c 0.671,4.227 -0.619,6.764 -4.14,6.764 -3.381,0 -5.616,-2.538 -6.284,-6.764 l -0.033,-0.212 h 10.423 z m 10.268,-7.68 h -21.908 l -0.021,-0.14 c -0.592,-3.734 0.591,-6.058 5.733,-6.058 3.734,0 10.692,0.35 13.473,0.565 1.138,0.073 1.529,-0.139 1.361,-1.196 l -1.003,-6.343 c -0.178,-1.127 -0.54,-1.619 -1.722,-1.973 -4.743,-1.482 -9.714,-2.185 -15.632,-2.185 -9.51,0 -17.523,5.003 -15.392,18.458 l 0.737,4.65 c 1.965,12.398 10.221,19.162 21.775,19.162 12.328,0 16.795,-7.818 14.999,-19.161 l -0.668,-4.23 c -0.146,-0.913 -0.883,-1.546 -1.727,-1.546 z m -49.258,7.68 c 0.671,4.227 -0.62,6.764 -4.143,6.764 -3.381,0 -5.613,-2.538 -6.282,-6.764 l -0.032,-0.212 h 10.425 l 0.033,0.212 z m 10.266,-7.68 h -21.909 l -0.02,-0.14 c -0.593,-3.734 0.59,-6.058 5.732,-6.058 3.734,0 10.692,0.35 13.474,0.565 1.137,0.073 1.525,-0.139 1.356,-1.196 l -1.002,-6.343 c -0.178,-1.127 -0.54,-1.619 -1.721,-1.973 -4.744,-1.482 -9.715,-2.185 -15.633,-2.185 -9.51,0 -17.522,5.003 -15.391,18.458 l 0.736,4.65 c 1.962,12.398 10.218,19.162 21.772,19.162 12.329,0 16.795,-7.818 14.999,-19.161 l -0.671,-4.23 c -0.145,-0.913 -0.882,-1.546 -1.727,-1.546 z m -35.396,13.809 h -0.984 c -3.03,0 -5.985,-0.423 -8.358,-1.619 l -4.33,-27.335 c -0.122,-0.778 -0.809,-1.551 -1.655,-1.551 h -10.567 c -0.846,0 -1.426,0.773 -1.304,1.549 l 6.024,38.042 c 0.124,0.777 0.647,1.412 1.634,1.412 h 10.144 c 0.986,0 1.353,-0.353 1.186,-1.41 l -0.267,-1.69 c 3.694,3.312 6.286,3.665 10.02,3.665 1.197,0 1.363,-0.282 1.185,-1.411 l -1.362,-8.594 c -0.132,-0.846 -0.448,-1.058 -1.364,-1.058 z m -26.722,0.493 h -5.353 l -4.689,-29.59 c -0.122,-0.776 -0.856,-1.409 -1.633,-1.409 h -10.707 c -0.776,0 -1.308,0.633 -1.186,1.409 l 6.573,41.499 c 1.663,10.495 6.961,12.821 14.218,12.821 2.253,0 4.615,-0.213 6.461,-0.564 0.823,-0.142 1.379,-0.635 1.255,-1.409 l -1.061,-6.696 c -0.122,-0.773 -0.846,-1.337 -1.692,-1.337 h -2.956 c -1.761,0 -2.366,-0.703 -2.699,-2.818 L -292.054,0 h 5.353 c 0.776,0 1.309,-0.633 1.186,-1.41 l -1.137,-7.186 c -0.126,-0.776 -0.861,-1.409 -1.634,-1.409 z" /></g><g
           transform="translate(453.7273,269.308)"
           id="g28"><path
             id="path30"
             style="fill:#29b2fe;fill-opacity:1;fill-rule:nonzero;stroke:none"
             d="M 0,0 -2.165,-13.536 21.072,0" /></g></g></g></g></svg>